<svg xmlns="http://www.w3.org/2000/svg" xmlns:xlink="http://www.w3.org/1999/xlink" version="1.1" width="256" height="256" viewBox="0 0 256 256" xml:space="preserve">

<defs>
</defs>
<g style="stroke: none; stroke-width: 0; stroke-dasharray: none; stroke-linecap: butt; stroke-linejoin: miter; stroke-miterlimit: 10; fill: none; fill-rule: nonzero; opacity: 1;" transform="translate(1.4065934065934016 1.4065934065934016) scale(2.81 2.81)" >
	<path d="M 80.194 90 H 9.806 C 4.399 90 0 85.602 0 80.194 V 9.806 C 0 4.399 4.399 0 9.806 0 H 58.2 c 0.796 0 1.559 0.316 2.121 0.878 l 28.8 28.8 C 89.684 30.241 90 31.003 90 31.799 v 48.395 C 90 85.602 85.602 90 80.194 90 z M 9.806 6 C 7.707 6 6 7.707 6 9.806 v 70.389 C 6 82.293 7.707 84 9.806 84 h 70.389 C 82.293 84 84 82.293 84 80.194 V 33.042 L 56.958 6 H 9.806 z" style="stroke: none; stroke-width: 1; stroke-dasharray: none; stroke-linecap: butt; stroke-linejoin: miter; stroke-miterlimit: 10; fill: rgb(255,197,51); fill-rule: nonzero; opacity: 1;" transform=" matrix(1 0 0 1 0 0) " stroke-linecap="round" />
	<path d="M 87 34.799 H 67.482 c -6.772 0 -12.282 -5.509 -12.282 -12.281 V 3 c 0 -1.213 0.73 -2.307 1.852 -2.771 c 1.123 -0.465 2.412 -0.208 3.27 0.65 l 28.8 28.8 c 0.858 0.858 1.115 2.148 0.65 3.269 C 89.308 34.068 88.214 34.799 87 34.799 z M 61.2 10.243 v 12.275 c 0 3.463 2.818 6.281 6.282 6.281 h 12.274 L 61.2 10.243 z" style="stroke: none; stroke-width: 1; stroke-dasharray: none; stroke-linecap: butt; stroke-linejoin: miter; stroke-miterlimit: 10; fill: rgb(255,197,51); fill-rule: nonzero; opacity: 1;" transform=" matrix(1 0 0 1 0 0) " stroke-linecap="round" />
	<path d="M 71.46 48 H 18.54 c -1.657 0 -3 -1.343 -3 -3 c 0 -1.657 1.343 -3 3 -3 h 52.92 c 1.657 0 3 1.343 3 3 C 74.46 46.657 73.117 48 71.46 48 z" style="stroke: none; stroke-width: 1; stroke-dasharray: none; stroke-linecap: butt; stroke-linejoin: miter; stroke-miterlimit: 10; fill: rgb(255,197,51); fill-rule: nonzero; opacity: 1;" transform=" matrix(1 0 0 1 0 0) " stroke-linecap="round" />
	<path d="M 71.46 69.948 H 18.54 c -1.657 0 -3 -1.343 -3 -3 s 1.343 -3 3 -3 h 52.92 c 1.657 0 3 1.343 3 3 S 73.117 69.948 71.46 69.948 z" style="stroke: none; stroke-width: 1; stroke-dasharray: none; stroke-linecap: butt; stroke-linejoin: miter; stroke-miterlimit: 10; fill: rgb(255,197,51); fill-rule: nonzero; opacity: 1;" transform=" matrix(1 0 0 1 0 0) " stroke-linecap="round" />
	<path d="M 43.526 26.052 H 18.54 c -1.657 0 -3 -1.343 -3 -3 s 1.343 -3 3 -3 h 24.986 c 1.657 0 3 1.343 3 3 S 45.183 26.052 43.526 26.052 z" style="stroke: none; stroke-width: 1; stroke-dasharray: none; stroke-linecap: butt; stroke-linejoin: miter; stroke-miterlimit: 10; fill: rgb(255,197,51); fill-rule: nonzero; opacity: 1;" transform=" matrix(1 0 0 1 0 0) " stroke-linecap="round" />
</g>
</svg>